<?xml version="1.0" encoding="UTF-8" standalone="no"?>
<svg
   xmlns:dc="http://purl.org/dc/elements/1.1/"
   xmlns:cc="http://creativecommons.org/ns#"
   xmlns:rdf="http://www.w3.org/1999/02/22-rdf-syntax-ns#"
   xmlns:svg="http://www.w3.org/2000/svg"
   xmlns="http://www.w3.org/2000/svg"
   xmlns:sodipodi="http://sodipodi.sourceforge.net/DTD/sodipodi-0.dtd"
   xmlns:inkscape="http://www.inkscape.org/namespaces/inkscape"
   version="1.1"
   x="0px"
   y="0px"
   viewBox="0 0 77.948997 77.948997"
   enable-background="new 0 0 100 100"
   xml:space="preserve"
   id="svg30"
   sodipodi:docname="logo.svg"
   inkscape:version="1.0.1 (3bc2e813f5, 2020-09-07)"><metadata
     id="metadata36"><rdf:RDF><cc:Work
         rdf:about=""><dc:format>image/svg+xml</dc:format><dc:type
           rdf:resource="http://purl.org/dc/dcmitype/StillImage" /></cc:Work></rdf:RDF></metadata><defs
     id="defs34" /><sodipodi:namedview
     pagecolor="#ffffff"
     bordercolor="#666666"
     borderopacity="1"
     objecttolerance="10"
     gridtolerance="10"
     guidetolerance="10"
     inkscape:pageopacity="0"
     inkscape:pageshadow="2"
     inkscape:window-width="1920"
     inkscape:window-height="986"
     id="namedview32"
     showgrid="false"
     inkscape:zoom="6.4"
     inkscape:cx="38.974"
     inkscape:cy="51.474"
     inkscape:window-x="-11"
     inkscape:window-y="-11"
     inkscape:window-maximized="1"
     inkscape:current-layer="svg30" /><path
     d="M 38.974,0 C 17.449,0 0,17.449 0,38.974 0,51.257 5.688,62.206 14.567,69.35 L 0,77.949 H 38.974 C 60.499,77.949 77.949,60.5 77.949,38.974 77.949,17.449 60.497,0 38.974,0 Z M 38.973,74.481 H 12.935 l 8.242,-4.786 C 10.591,63.548 3.467,52.097 3.467,38.974 c 0,-19.61 15.896,-35.506 35.506,-35.506 19.61,0 35.507,15.896 35.507,35.506 0,19.609 -15.897,35.507 -35.507,35.507 z m 2.989,-35.507 c 0,1.55 -1.257,2.808 -2.808,2.808 -1.551,0 -2.808,-1.258 -2.808,-2.808 0,-1.551 1.257,-2.809 2.809,-2.809 1.552,0 2.807,1.258 2.807,2.809 z m 13.945,0.012 c 0.905,-0.955 1.655,-1.91 2.24,-2.845 0.082,0.013 0.163,0.025 0.248,0.025 0.891,0 1.611,-0.721 1.611,-1.611 0,-0.507 -0.239,-0.954 -0.605,-1.249 0.285,-1.173 0.236,-2.274 -0.202,-3.257 -1.011,-2.273 -3.937,-3.525 -8.236,-3.525 -1.232,0 -2.542,0.108 -3.902,0.302 -1.671,-5.941 -4.56,-9.794 -7.906,-9.794 -3.348,0 -6.234,3.853 -7.907,9.794 -1.359,-0.193 -2.668,-0.301 -3.9,-0.301 -3.296,0 -5.781,0.737 -7.219,2.104 -0.179,-0.068 -0.372,-0.11 -0.575,-0.11 -0.89,0 -1.611,0.721 -1.611,1.611 0,0.592 0.323,1.104 0.8,1.384 -0.175,2.217 1.166,4.836 3.648,7.46 -3.056,3.228 -4.381,6.451 -3.281,8.924 1.013,2.272 3.938,3.524 8.238,3.524 1.232,0 2.542,-0.106 3.9,-0.3 1.673,5.939 4.56,9.794 7.907,9.794 1.056,0 2.067,-0.387 3.007,-1.098 0.226,0.119 0.479,0.193 0.753,0.193 0.889,0 1.611,-0.722 1.611,-1.61 0,-0.324 -0.099,-0.625 -0.263,-0.878 1.119,-1.647 2.073,-3.826 2.797,-6.401 1.36,0.193 2.67,0.3 3.902,0.3 4.3,0 7.225,-1.252 8.236,-3.524 1.058,-2.374 -0.098,-5.525 -3.253,-8.871 -0.012,-0.013 -0.026,-0.028 -0.038,-0.041 z M 50.962,27.479 c 3.899,0 6.516,1.051 7.364,2.959 0.333,0.747 0.375,1.598 0.167,2.516 -0.034,-0.002 -0.065,-0.01 -0.099,-0.01 -0.889,0 -1.611,0.721 -1.611,1.611 0,0.448 0.185,0.852 0.479,1.144 -0.541,0.841 -1.231,1.706 -2.059,2.578 -1.883,-1.838 -4.249,-3.609 -6.941,-5.209 -0.219,-1.89 -0.54,-3.67 -0.952,-5.309 1.282,-0.181 2.51,-0.28 3.652,-0.28 z m -2.575,6.782 c 2.373,1.462 4.454,3.056 6.142,4.704 -1.65,1.608 -3.737,3.216 -6.141,4.709 0.137,-1.511 0.21,-3.081 0.21,-4.7 0,-1.623 -0.074,-3.198 -0.211,-4.713 z m -0.744,4.713 c 0,1.831 -0.103,3.616 -0.29,5.323 -1.484,0.867 -3.072,1.687 -4.745,2.431 -1.146,0.511 -2.302,0.964 -3.454,1.377 -1.152,-0.413 -2.307,-0.866 -3.451,-1.376 -1.674,-0.745 -3.264,-1.564 -4.747,-2.43 -0.189,-1.709 -0.291,-3.494 -0.291,-5.325 0,-1.832 0.102,-3.617 0.291,-5.325 1.482,-0.867 3.072,-1.686 4.746,-2.431 1.146,-0.51 2.301,-0.963 3.453,-1.376 1.153,0.413 2.307,0.866 3.454,1.376 1.665,0.742 3.249,1.562 4.745,2.43 0.186,1.708 0.289,3.493 0.289,5.326 z m -0.44,-6.518 c -1.339,-0.75 -2.745,-1.458 -4.208,-2.11 -0.803,-0.357 -1.603,-0.683 -2.401,-0.992 1.964,-0.635 3.894,-1.118 5.73,-1.434 0.363,1.414 0.661,2.935 0.879,4.536 z M 39.154,17.987 c 2.815,0 5.362,3.601 6.916,8.999 -2.212,0.382 -4.541,0.996 -6.916,1.834 -2.375,-0.838 -4.704,-1.452 -6.916,-1.834 1.555,-5.398 4.101,-8.999 6.916,-8.999 z m -7.17,9.934 c 1.836,0.314 3.766,0.797 5.73,1.433 -0.8,0.309 -1.6,0.635 -2.402,0.992 -1.479,0.658 -2.884,1.365 -4.207,2.104 0.22,-1.599 0.516,-3.118 0.879,-4.529 z M 19.69,31.727 c 0.824,-0.071 1.474,-0.755 1.474,-1.597 0,-0.336 -0.104,-0.647 -0.279,-0.906 1.268,-1.134 3.49,-1.745 6.461,-1.745 1.143,0 2.371,0.099 3.652,0.279 -0.411,1.636 -0.732,3.414 -0.952,5.3 -2.76,1.635 -5.117,3.412 -6.955,5.204 -2.221,-2.345 -3.475,-4.648 -3.401,-6.535 z m 10.231,11.947 c -2.399,-1.489 -4.484,-3.096 -6.131,-4.7 1.647,-1.606 3.732,-3.211 6.131,-4.7 -0.137,1.51 -0.21,3.081 -0.21,4.7 -10e-4,1.619 0.073,3.189 0.21,4.7 z m -2.574,6.794 c -3.9,0 -6.516,-1.051 -7.365,-2.958 -0.919,-2.064 0.352,-4.912 3.11,-7.825 1.838,1.793 4.195,3.569 6.956,5.203 0.219,1.888 0.54,3.664 0.951,5.301 -1.282,0.181 -2.51,0.279 -3.652,0.279 z m 3.758,-4.971 c 1.325,0.74 2.729,1.446 4.207,2.104 0.801,0.356 1.602,0.683 2.4,0.992 -1.963,0.635 -3.893,1.118 -5.729,1.432 -0.362,-1.41 -0.658,-2.928 -0.878,-4.528 z m 12.389,11.406 c -0.18,-0.07 -0.374,-0.112 -0.579,-0.112 -0.891,0 -1.611,0.721 -1.611,1.611 0,0.258 0.066,0.498 0.175,0.714 -0.742,0.543 -1.521,0.846 -2.324,0.846 -2.815,0 -5.362,-3.602 -6.916,-9.001 2.211,-0.381 4.541,-0.995 6.915,-1.832 2.376,0.837 4.705,1.451 6.917,1.832 -0.688,2.382 -1.568,4.413 -2.577,5.942 z m 2.831,-6.877 c -1.837,-0.313 -3.767,-0.797 -5.73,-1.432 0.799,-0.31 1.599,-0.636 2.401,-0.992 1.479,-0.659 2.883,-1.365 4.207,-2.104 -0.22,1.599 -0.516,3.117 -0.878,4.528 z M 58.326,47.51 c -0.848,1.908 -3.464,2.958 -7.363,2.958 -1.143,0 -2.37,-0.099 -3.652,-0.279 0.411,-1.637 0.732,-3.414 0.951,-5.301 2.771,-1.64 5.133,-3.423 6.974,-5.223 0.005,0.007 0.013,0.013 0.017,0.017 2.83,3.003 3.95,5.856 3.073,7.828 z"
     id="path24" /><text
     x="-11.026"
     y="103.974"
     fill="#000000"
     font-size="5px"
     font-weight="bold"
     font-family="'Helvetica Neue', Helvetica, Arial-Unicode, Arial, Sans-serif"
     id="text26">Created by Christopher Holm-Hansen</text><text
     x="-11.026"
     y="108.974"
     fill="#000000"
     font-size="5px"
     font-weight="bold"
     font-family="'Helvetica Neue', Helvetica, Arial-Unicode, Arial, Sans-serif"
     id="text28">from the Noun Project</text></svg>
